<svg id="visual" viewBox="0 0 450 1500" width="450" height="1500" xmlns="http://www.w3.org/2000/svg" xmlns:xlink="http://www.w3.org/1999/xlink" version="1.1">
  <g stroke-width="1" stroke-linejoin="bevel">
    <path d="M229 739L266 726L199 721Z" fill="#31546b" stroke="#31546b"></path>
    <path d="M266 726L261 658L199 721Z" fill="#00a391" stroke="#00a391"></path>
    <path d="M261 658L217 653L199 721Z" fill="#00818f" stroke="#00818f"></path>
    <path d="M217 653L189 682L199 721Z" fill="#00a391" stroke="#00a391"></path>
    <path d="M266 726L281 714L261 658Z" fill="#226a80" stroke="#226a80"></path>
    <path d="M219 820L256 767L229 739Z" fill="#2b5f76" stroke="#2b5f76"></path>
    <path d="M229 739L256 767L266 726Z" fill="#34495e" stroke="#34495e"></path>
    <path d="M266 726L312 729L281 714Z" fill="#20ae8b" stroke="#20ae8b"></path>
    <path d="M189 682L162 714L199 721Z" fill="#34495e" stroke="#34495e"></path>
    <path d="M164 818L219 820L229 739Z" fill="#157589" stroke="#157589"></path>
    <path d="M286 779L312 729L266 726Z" fill="#157589" stroke="#157589"></path>
    <path d="M281 714L317 646L261 658Z" fill="#157589" stroke="#157589"></path>
    <path d="M239 596L226 608L261 658Z" fill="#008d93" stroke="#008d93"></path>
    <path d="M261 658L226 608L217 653Z" fill="#009893" stroke="#009893"></path>
    <path d="M217 653L181 599L189 682Z" fill="#31546b" stroke="#31546b"></path>
    <path d="M189 682L131 644L162 714Z" fill="#008d93" stroke="#008d93"></path>
    <path d="M312 729L317 646L281 714Z" fill="#34495e" stroke="#34495e"></path>
    <path d="M256 767L286 779L266 726Z" fill="#008d93" stroke="#008d93"></path>
    <path d="M320 788L327 733L312 729Z" fill="#226a80" stroke="#226a80"></path>
    <path d="M312 729L358 700L317 646Z" fill="#00a391" stroke="#00a391"></path>
    <path d="M325 617L239 596L261 658Z" fill="#009893" stroke="#009893"></path>
    <path d="M239 596L181 599L226 608Z" fill="#00818f" stroke="#00818f"></path>
    <path d="M226 608L181 599L217 653Z" fill="#00a391" stroke="#00a391"></path>
    <path d="M181 599L131 644L189 682Z" fill="#226a80" stroke="#226a80"></path>
    <path d="M354 636L325 617L317 646Z" fill="#226a80" stroke="#226a80"></path>
    <path d="M317 646L325 617L261 658Z" fill="#31546b" stroke="#31546b"></path>
    <path d="M365 761L358 700L327 733Z" fill="#008d93" stroke="#008d93"></path>
    <path d="M327 733L358 700L312 729Z" fill="#008d93" stroke="#008d93"></path>
    <path d="M164 818L229 739L199 721Z" fill="#157589" stroke="#157589"></path>
    <path d="M256 767L223 825L286 779Z" fill="#2b5f76" stroke="#2b5f76"></path>
    <path d="M319 846L320 788L286 779Z" fill="#009893" stroke="#009893"></path>
    <path d="M286 779L320 788L312 729Z" fill="#226a80" stroke="#226a80"></path>
    <path d="M81 688L136 779L162 714Z" fill="#20ae8b" stroke="#20ae8b"></path>
    <path d="M162 714L136 779L199 721Z" fill="#00818f" stroke="#00818f"></path>
    <path d="M172 840L223 825L219 820Z" fill="#31546b" stroke="#31546b"></path>
    <path d="M219 820L223 825L256 767Z" fill="#20ae8b" stroke="#20ae8b"></path>
    <path d="M354 636L332 605L325 617Z" fill="#20ae8b" stroke="#20ae8b"></path>
    <path d="M325 617L332 605L239 596Z" fill="#00818f" stroke="#00818f"></path>
    <path d="M372 660L354 636L317 646Z" fill="#00a391" stroke="#00a391"></path>
    <path d="M136 779L164 818L199 721Z" fill="#157589" stroke="#157589"></path>
    <path d="M358 700L372 660L317 646Z" fill="#00818f" stroke="#00818f"></path>
    <path d="M354 636L361 567L332 605Z" fill="#00a391" stroke="#00a391"></path>
    <path d="M352 784L365 761L327 733Z" fill="#008d93" stroke="#008d93"></path>
    <path d="M358 700L420 720L372 660Z" fill="#008d93" stroke="#008d93"></path>
    <path d="M320 788L352 784L327 733Z" fill="#157589" stroke="#157589"></path>
    <path d="M319 846L352 784L320 788Z" fill="#20ae8b" stroke="#20ae8b"></path>
    <path d="M167 554L125 588L181 599Z" fill="#2b5f76" stroke="#2b5f76"></path>
    <path d="M181 599L125 588L131 644Z" fill="#00a391" stroke="#00a391"></path>
    <path d="M131 644L81 688L162 714Z" fill="#41b883" stroke="#41b883"></path>
    <path d="M64 678L81 688L131 644Z" fill="#41b883" stroke="#41b883"></path>
    <path d="M172 840L172 837L164 818Z" fill="#34495e" stroke="#34495e"></path>
    <path d="M164 818L172 837L219 820Z" fill="#20ae8b" stroke="#20ae8b"></path>
    <path d="M200 540L181 599L239 596Z" fill="#31546b" stroke="#31546b"></path>
    <path d="M200 540L167 554L181 599Z" fill="#00a391" stroke="#00a391"></path>
    <path d="M163 874L172 840L107 861Z" fill="#2b5f76" stroke="#2b5f76"></path>
    <path d="M172 837L172 840L219 820Z" fill="#00a391" stroke="#00a391"></path>
    <path d="M107 791L164 818L136 779Z" fill="#157589" stroke="#157589"></path>
    <path d="M81 688L107 791L136 779Z" fill="#20ae8b" stroke="#20ae8b"></path>
    <path d="M276 516L200 540L239 596Z" fill="#41b883" stroke="#41b883"></path>
    <path d="M89 584L91 609L125 588Z" fill="#157589" stroke="#157589"></path>
    <path d="M125 588L91 609L131 644Z" fill="#008d93" stroke="#008d93"></path>
    <path d="M450 771L399 744L432 828Z" fill="#2b5f76" stroke="#2b5f76"></path>
    <path d="M365 761L399 744L358 700Z" fill="#20ae8b" stroke="#20ae8b"></path>
    <path d="M91 609L64 678L131 644Z" fill="#157589" stroke="#157589"></path>
    <path d="M81 688L34 761L107 791Z" fill="#31546b" stroke="#31546b"></path>
    <path d="M172 840L213 866L223 825Z" fill="#00818f" stroke="#00818f"></path>
    <path d="M223 825L319 846L286 779Z" fill="#2b5f76" stroke="#2b5f76"></path>
    <path d="M213 866L319 846L223 825Z" fill="#226a80" stroke="#226a80"></path>
    <path d="M432 828L399 744L365 761Z" fill="#157589" stroke="#157589"></path>
    <path d="M431 582L361 567L354 636Z" fill="#34495e" stroke="#34495e"></path>
    <path d="M332 605L285 521L239 596Z" fill="#2b5f76" stroke="#2b5f76"></path>
    <path d="M431 582L354 636L372 660Z" fill="#009893" stroke="#009893"></path>
    <path d="M337 529L285 521L332 605Z" fill="#34495e" stroke="#34495e"></path>
    <path d="M120 536L89 584L125 588Z" fill="#00a391" stroke="#00a391"></path>
    <path d="M29 635L23 667L64 678Z" fill="#20ae8b" stroke="#20ae8b"></path>
    <path d="M120 536L125 588L167 554Z" fill="#00a391" stroke="#00a391"></path>
    <path d="M285 521L276 516L239 596Z" fill="#31546b" stroke="#31546b"></path>
    <path d="M208 474L148 531L200 540Z" fill="#226a80" stroke="#226a80"></path>
    <path d="M200 540L148 531L167 554Z" fill="#226a80" stroke="#226a80"></path>
    <path d="M450 695L420 720L450 771Z" fill="#31546b" stroke="#31546b"></path>
    <path d="M399 744L420 720L358 700Z" fill="#157589" stroke="#157589"></path>
    <path d="M172 840L163 874L213 866Z" fill="#157589" stroke="#157589"></path>
    <path d="M107 861L172 840L164 818Z" fill="#00a391" stroke="#00a391"></path>
    <path d="M361 567L337 529L332 605Z" fill="#34495e" stroke="#34495e"></path>
    <path d="M313 482L267 499L276 516Z" fill="#226a80" stroke="#226a80"></path>
    <path d="M148 531L120 536L167 554Z" fill="#20ae8b" stroke="#20ae8b"></path>
    <path d="M361 567L345 532L337 529Z" fill="#34495e" stroke="#34495e"></path>
    <path d="M313 482L276 516L285 521Z" fill="#008d93" stroke="#008d93"></path>
    <path d="M276 516L267 499L200 540Z" fill="#00818f" stroke="#00818f"></path>
    <path d="M148 531L163 434L120 536Z" fill="#34495e" stroke="#34495e"></path>
    <path d="M313 482L285 521L337 529Z" fill="#00818f" stroke="#00818f"></path>
    <path d="M27 813L107 861L107 791Z" fill="#226a80" stroke="#226a80"></path>
    <path d="M107 791L107 861L164 818Z" fill="#2b5f76" stroke="#2b5f76"></path>
    <path d="M23 667L34 761L64 678Z" fill="#009893" stroke="#009893"></path>
    <path d="M64 678L34 761L81 688Z" fill="#008d93" stroke="#008d93"></path>
    <path d="M47 593L91 609L89 584Z" fill="#009893" stroke="#009893"></path>
    <path d="M29 635L64 678L91 609Z" fill="#34495e" stroke="#34495e"></path>
    <path d="M43 529L47 593L89 584Z" fill="#009893" stroke="#009893"></path>
    <path d="M47 593L29 635L91 609Z" fill="#157589" stroke="#157589"></path>
    <path d="M450 771L420 720L399 744Z" fill="#20ae8b" stroke="#20ae8b"></path>
    <path d="M420 720L450 695L372 660Z" fill="#2b5f76" stroke="#2b5f76"></path>
    <path d="M361 567L428 498L345 532Z" fill="#20ae8b" stroke="#20ae8b"></path>
    <path d="M240 450L208 474L267 499Z" fill="#00a391" stroke="#00a391"></path>
    <path d="M267 499L208 474L200 540Z" fill="#157589" stroke="#157589"></path>
    <path d="M450 695L450 634L372 660Z" fill="#20ae8b" stroke="#20ae8b"></path>
    <path d="M260 932L213 866L183 977Z" fill="#00a391" stroke="#00a391"></path>
    <path d="M260 932L269 920L213 866Z" fill="#00a391" stroke="#00a391"></path>
    <path d="M213 866L269 920L319 846Z" fill="#41b883" stroke="#41b883"></path>
    <path d="M432 828L365 761L352 784Z" fill="#34495e" stroke="#34495e"></path>
    <path d="M450 621L431 582L372 660Z" fill="#31546b" stroke="#31546b"></path>
    <path d="M310 439L313 482L365 434Z" fill="#157589" stroke="#157589"></path>
    <path d="M345 532L313 482L337 529Z" fill="#00a391" stroke="#00a391"></path>
    <path d="M450 634L450 621L372 660Z" fill="#009893" stroke="#009893"></path>
    <path d="M389 874L352 784L319 846Z" fill="#157589" stroke="#157589"></path>
    <path d="M0 767L20 774L34 761Z" fill="#41b883" stroke="#41b883"></path>
    <path d="M34 761L27 813L107 791Z" fill="#2b5f76" stroke="#2b5f76"></path>
    <path d="M75 910L116 897L107 861Z" fill="#41b883" stroke="#41b883"></path>
    <path d="M107 861L116 897L163 874Z" fill="#31546b" stroke="#31546b"></path>
    <path d="M390 905L389 874L319 846Z" fill="#41b883" stroke="#41b883"></path>
    <path d="M29 635L0 668L23 667Z" fill="#20ae8b" stroke="#20ae8b"></path>
    <path d="M23 667L0 668L34 761Z" fill="#31546b" stroke="#31546b"></path>
    <path d="M0 624L0 668L29 635Z" fill="#157589" stroke="#157589"></path>
    <path d="M389 874L432 828L352 784Z" fill="#00818f" stroke="#00818f"></path>
    <path d="M183 977L213 866L163 874Z" fill="#157589" stroke="#157589"></path>
    <path d="M269 920L390 905L319 846Z" fill="#009893" stroke="#009893"></path>
    <path d="M0 769L27 813L20 774Z" fill="#41b883" stroke="#41b883"></path>
    <path d="M20 774L27 813L34 761Z" fill="#31546b" stroke="#31546b"></path>
    <path d="M0 668L0 767L34 761Z" fill="#41b883" stroke="#41b883"></path>
    <path d="M0 580L0 624L47 593Z" fill="#41b883" stroke="#41b883"></path>
    <path d="M47 593L0 624L29 635Z" fill="#008d93" stroke="#008d93"></path>
    <path d="M0 767L0 769L20 774Z" fill="#00818f" stroke="#00818f"></path>
    <path d="M266 427L240 450L267 499Z" fill="#00818f" stroke="#00818f"></path>
    <path d="M69 441L43 529L120 536Z" fill="#20ae8b" stroke="#20ae8b"></path>
    <path d="M450 902L450 816L432 828Z" fill="#00a391" stroke="#00a391"></path>
    <path d="M432 828L450 816L450 771Z" fill="#00818f" stroke="#00818f"></path>
    <path d="M75 910L131 920L116 897Z" fill="#00818f" stroke="#00818f"></path>
    <path d="M116 897L131 920L163 874Z" fill="#00a391" stroke="#00a391"></path>
    <path d="M163 434L148 531L208 474Z" fill="#2b5f76" stroke="#2b5f76"></path>
    <path d="M120 536L43 529L89 584Z" fill="#009893" stroke="#009893"></path>
    <path d="M388 939L390 905L269 920Z" fill="#226a80" stroke="#226a80"></path>
    <path d="M389 874L450 902L432 828Z" fill="#008d93" stroke="#008d93"></path>
    <path d="M0 558L0 580L47 593Z" fill="#008d93" stroke="#008d93"></path>
    <path d="M0 839L75 910L27 813Z" fill="#34495e" stroke="#34495e"></path>
    <path d="M27 813L75 910L107 861Z" fill="#00a391" stroke="#00a391"></path>
    <path d="M365 434L313 482L345 532Z" fill="#20ae8b" stroke="#20ae8b"></path>
    <path d="M313 482L266 427L267 499Z" fill="#00818f" stroke="#00818f"></path>
    <path d="M235 399L208 429L240 450Z" fill="#008d93" stroke="#008d93"></path>
    <path d="M240 450L208 429L208 474Z" fill="#009893" stroke="#009893"></path>
    <path d="M310 439L266 427L313 482Z" fill="#226a80" stroke="#226a80"></path>
    <path d="M183 424L163 434L208 474Z" fill="#31546b" stroke="#31546b"></path>
    <path d="M43 529L0 558L47 593Z" fill="#009893" stroke="#009893"></path>
    <path d="M0 515L0 558L43 529Z" fill="#2b5f76" stroke="#2b5f76"></path>
    <path d="M0 769L0 839L27 813Z" fill="#34495e" stroke="#34495e"></path>
    <path d="M183 977L265 969L260 932Z" fill="#31546b" stroke="#31546b"></path>
    <path d="M260 932L265 969L269 920Z" fill="#2b5f76" stroke="#2b5f76"></path>
    <path d="M183 977L163 874L131 920Z" fill="#009893" stroke="#009893"></path>
    <path d="M208 429L183 424L208 474Z" fill="#20ae8b" stroke="#20ae8b"></path>
    <path d="M155 412L183 424L235 399Z" fill="#157589" stroke="#157589"></path>
    <path d="M450 521L428 498L431 582Z" fill="#00a391" stroke="#00a391"></path>
    <path d="M431 582L428 498L361 567Z" fill="#00a391" stroke="#00a391"></path>
    <path d="M450 621L450 521L431 582Z" fill="#226a80" stroke="#226a80"></path>
    <path d="M74 945L138 960L131 920Z" fill="#008d93" stroke="#008d93"></path>
    <path d="M388 939L404 926L390 905Z" fill="#009893" stroke="#009893"></path>
    <path d="M390 905L450 902L389 874Z" fill="#157589" stroke="#157589"></path>
    <path d="M138 960L183 977L131 920Z" fill="#2b5f76" stroke="#2b5f76"></path>
    <path d="M383 953L388 939L269 920Z" fill="#00a391" stroke="#00a391"></path>
    <path d="M255 999L280 982L265 969Z" fill="#34495e" stroke="#34495e"></path>
    <path d="M265 969L280 982L269 920Z" fill="#00a391" stroke="#00a391"></path>
    <path d="M428 498L365 434L345 532Z" fill="#009893" stroke="#009893"></path>
    <path d="M269 374L235 399L266 427Z" fill="#00818f" stroke="#00818f"></path>
    <path d="M235 399L183 424L208 429Z" fill="#008d93" stroke="#008d93"></path>
    <path d="M183 424L155 412L163 434Z" fill="#41b883" stroke="#41b883"></path>
    <path d="M163 434L69 441L120 536Z" fill="#009893" stroke="#009893"></path>
    <path d="M235 399L240 450L266 427Z" fill="#00a391" stroke="#00a391"></path>
    <path d="M450 521L450 493L428 498Z" fill="#00a391" stroke="#00a391"></path>
    <path d="M428 498L430 473L365 434Z" fill="#31546b" stroke="#31546b"></path>
    <path d="M26 467L0 515L43 529Z" fill="#00a391" stroke="#00a391"></path>
    <path d="M450 493L430 473L428 498Z" fill="#226a80" stroke="#226a80"></path>
    <path d="M0 912L74 945L75 910Z" fill="#00a391" stroke="#00a391"></path>
    <path d="M75 910L74 945L131 920Z" fill="#226a80" stroke="#226a80"></path>
    <path d="M138 960L183 1011L183 977Z" fill="#00a391" stroke="#00a391"></path>
    <path d="M287 383L266 427L310 439Z" fill="#008d93" stroke="#008d93"></path>
    <path d="M280 982L383 953L269 920Z" fill="#009893" stroke="#009893"></path>
    <path d="M388 939L384 963L404 926Z" fill="#00818f" stroke="#00818f"></path>
    <path d="M450 928L450 902L404 926Z" fill="#2b5f76" stroke="#2b5f76"></path>
    <path d="M404 926L450 902L390 905Z" fill="#41b883" stroke="#41b883"></path>
    <path d="M155 412L69 441L163 434Z" fill="#2b5f76" stroke="#2b5f76"></path>
    <path d="M193 1020L255 999L183 977Z" fill="#157589" stroke="#157589"></path>
    <path d="M183 977L255 999L265 969Z" fill="#20ae8b" stroke="#20ae8b"></path>
    <path d="M369 994L384 963L383 953Z" fill="#157589" stroke="#157589"></path>
    <path d="M369 994L383 953L280 982Z" fill="#20ae8b" stroke="#20ae8b"></path>
    <path d="M383 953L384 963L388 939Z" fill="#34495e" stroke="#34495e"></path>
    <path d="M69 441L26 467L43 529Z" fill="#226a80" stroke="#226a80"></path>
    <path d="M450 994L450 928L404 926Z" fill="#31546b" stroke="#31546b"></path>
    <path d="M344 373L310 439L365 434Z" fill="#226a80" stroke="#226a80"></path>
    <path d="M344 373L287 383L310 439Z" fill="#226a80" stroke="#226a80"></path>
    <path d="M222 319L121 378L155 412Z" fill="#34495e" stroke="#34495e"></path>
    <path d="M0 839L0 912L75 910Z" fill="#20ae8b" stroke="#20ae8b"></path>
    <path d="M193 1020L176 1058L211 1043Z" fill="#00818f" stroke="#00818f"></path>
    <path d="M176 1058L183 1011L67 1054Z" fill="#008d93" stroke="#008d93"></path>
    <path d="M287 383L269 374L266 427Z" fill="#41b883" stroke="#41b883"></path>
    <path d="M193 1020L183 1011L176 1058Z" fill="#226a80" stroke="#226a80"></path>
    <path d="M183 1011L193 1020L183 977Z" fill="#34495e" stroke="#34495e"></path>
    <path d="M319 1023L369 994L280 982Z" fill="#226a80" stroke="#226a80"></path>
    <path d="M319 1023L280 982L255 999Z" fill="#157589" stroke="#157589"></path>
    <path d="M384 963L450 994L404 926Z" fill="#009893" stroke="#009893"></path>
    <path d="M155 412L77 401L69 441Z" fill="#2b5f76" stroke="#2b5f76"></path>
    <path d="M69 441L0 429L26 467Z" fill="#226a80" stroke="#226a80"></path>
    <path d="M121 378L77 401L155 412Z" fill="#31546b" stroke="#31546b"></path>
    <path d="M222 319L155 412L235 399Z" fill="#2b5f76" stroke="#2b5f76"></path>
    <path d="M225 1059L319 1023L255 999Z" fill="#41b883" stroke="#41b883"></path>
    <path d="M361 351L344 373L365 434Z" fill="#41b883" stroke="#41b883"></path>
    <path d="M312 320L275 319L269 374Z" fill="#2b5f76" stroke="#2b5f76"></path>
    <path d="M450 412L365 434L430 473Z" fill="#157589" stroke="#157589"></path>
    <path d="M40 995L138 960L74 945Z" fill="#31546b" stroke="#31546b"></path>
    <path d="M193 1020L211 1043L255 999Z" fill="#31546b" stroke="#31546b"></path>
    <path d="M0 912L37 986L74 945Z" fill="#31546b" stroke="#31546b"></path>
    <path d="M259 1112L334 1035L319 1023Z" fill="#008d93" stroke="#008d93"></path>
    <path d="M319 1023L334 1035L369 994Z" fill="#20ae8b" stroke="#20ae8b"></path>
    <path d="M369 994L389 1017L384 963Z" fill="#34495e" stroke="#34495e"></path>
    <path d="M33 393L69 441L77 401Z" fill="#31546b" stroke="#31546b"></path>
    <path d="M33 393L0 429L69 441Z" fill="#20ae8b" stroke="#20ae8b"></path>
    <path d="M26 467L0 429L0 515Z" fill="#41b883" stroke="#41b883"></path>
    <path d="M450 493L450 412L430 473Z" fill="#2b5f76" stroke="#2b5f76"></path>
    <path d="M334 1035L389 1017L369 994Z" fill="#009893" stroke="#009893"></path>
    <path d="M0 1005L40 995L37 986Z" fill="#41b883" stroke="#41b883"></path>
    <path d="M37 986L40 995L74 945Z" fill="#157589" stroke="#157589"></path>
    <path d="M127 321L75 370L121 378Z" fill="#31546b" stroke="#31546b"></path>
    <path d="M121 378L75 370L77 401Z" fill="#2b5f76" stroke="#2b5f76"></path>
    <path d="M222 319L235 399L269 374Z" fill="#157589" stroke="#157589"></path>
    <path d="M176 1058L225 1059L211 1043Z" fill="#2b5f76" stroke="#2b5f76"></path>
    <path d="M211 1043L225 1059L255 999Z" fill="#00a391" stroke="#00a391"></path>
    <path d="M75 370L33 393L77 401Z" fill="#31546b" stroke="#31546b"></path>
    <path d="M67 1054L183 1011L138 960Z" fill="#31546b" stroke="#31546b"></path>
    <path d="M0 912L0 978L37 986Z" fill="#20ae8b" stroke="#20ae8b"></path>
    <path d="M40 995L67 1054L138 960Z" fill="#41b883" stroke="#41b883"></path>
    <path d="M450 387L361 351L365 434Z" fill="#20ae8b" stroke="#20ae8b"></path>
    <path d="M312 320L269 374L287 383Z" fill="#20ae8b" stroke="#20ae8b"></path>
    <path d="M33 393L0 413L0 429Z" fill="#009893" stroke="#009893"></path>
    <path d="M389 1017L450 994L384 963Z" fill="#009893" stroke="#009893"></path>
    <path d="M450 412L450 387L365 434Z" fill="#226a80" stroke="#226a80"></path>
    <path d="M275 319L222 319L269 374Z" fill="#009893" stroke="#009893"></path>
    <path d="M312 320L287 383L344 373Z" fill="#157589" stroke="#157589"></path>
    <path d="M450 387L450 379L361 351Z" fill="#34495e" stroke="#34495e"></path>
    <path d="M361 351L312 320L344 373Z" fill="#00818f" stroke="#00818f"></path>
    <path d="M375 308L312 320L361 351Z" fill="#00a391" stroke="#00a391"></path>
    <path d="M0 978L0 1005L37 986Z" fill="#009893" stroke="#009893"></path>
    <path d="M312 320L279 310L275 319Z" fill="#00a391" stroke="#00a391"></path>
    <path d="M275 319L279 310L222 319Z" fill="#31546b" stroke="#31546b"></path>
    <path d="M222 319L127 321L121 378Z" fill="#31546b" stroke="#31546b"></path>
    <path d="M75 370L66 323L33 393Z" fill="#2b5f76" stroke="#2b5f76"></path>
    <path d="M33 393L0 314L0 413Z" fill="#008d93" stroke="#008d93"></path>
    <path d="M163 268L127 321L222 319Z" fill="#226a80" stroke="#226a80"></path>
    <path d="M0 1051L67 1054L40 995Z" fill="#008d93" stroke="#008d93"></path>
    <path d="M371 1072L412 1053L389 1017Z" fill="#00a391" stroke="#00a391"></path>
    <path d="M389 1017L412 1053L450 994Z" fill="#009893" stroke="#009893"></path>
    <path d="M371 1072L389 1017L334 1035Z" fill="#34495e" stroke="#34495e"></path>
    <path d="M273 1129L371 1072L334 1035Z" fill="#34495e" stroke="#34495e"></path>
    <path d="M259 1112L319 1023L225 1059Z" fill="#00818f" stroke="#00818f"></path>
    <path d="M180 1099L225 1059L176 1058Z" fill="#226a80" stroke="#226a80"></path>
    <path d="M125 1092L180 1099L176 1058Z" fill="#41b883" stroke="#41b883"></path>
    <path d="M111 269L66 323L127 321Z" fill="#009893" stroke="#009893"></path>
    <path d="M127 321L66 323L75 370Z" fill="#009893" stroke="#009893"></path>
    <path d="M67 1054L125 1092L176 1058Z" fill="#2b5f76" stroke="#2b5f76"></path>
    <path d="M450 379L375 308L361 351Z" fill="#157589" stroke="#157589"></path>
    <path d="M249 260L238 265L279 310Z" fill="#31546b" stroke="#31546b"></path>
    <path d="M0 1051L69 1076L67 1054Z" fill="#226a80" stroke="#226a80"></path>
    <path d="M67 1054L69 1076L125 1092Z" fill="#34495e" stroke="#34495e"></path>
    <path d="M269 1128L259 1112L247 1151Z" fill="#34495e" stroke="#34495e"></path>
    <path d="M180 1099L259 1112L225 1059Z" fill="#20ae8b" stroke="#20ae8b"></path>
    <path d="M0 1005L0 1051L40 995Z" fill="#00a391" stroke="#00a391"></path>
    <path d="M412 1053L450 1063L450 994Z" fill="#00a391" stroke="#00a391"></path>
    <path d="M450 1067L450 1063L412 1053Z" fill="#00a391" stroke="#00a391"></path>
    <path d="M450 1067L412 1053L382 1125Z" fill="#41b883" stroke="#41b883"></path>
    <path d="M382 1125L412 1053L371 1072Z" fill="#008d93" stroke="#008d93"></path>
    <path d="M249 260L279 310L313 239Z" fill="#41b883" stroke="#41b883"></path>
    <path d="M279 310L238 265L222 319Z" fill="#00a391" stroke="#00a391"></path>
    <path d="M84 1134L142 1118L125 1092Z" fill="#20ae8b" stroke="#20ae8b"></path>
    <path d="M125 1092L142 1118L180 1099Z" fill="#008d93" stroke="#008d93"></path>
    <path d="M75 1128L125 1092L69 1076Z" fill="#157589" stroke="#157589"></path>
    <path d="M166 266L163 268L222 319Z" fill="#226a80" stroke="#226a80"></path>
    <path d="M247 1151L259 1112L188 1150Z" fill="#31546b" stroke="#31546b"></path>
    <path d="M259 1112L273 1129L334 1035Z" fill="#00a391" stroke="#00a391"></path>
    <path d="M247 1151L273 1129L269 1128Z" fill="#00a391" stroke="#00a391"></path>
    <path d="M269 1128L273 1129L259 1112Z" fill="#31546b" stroke="#31546b"></path>
    <path d="M238 265L166 266L222 319Z" fill="#157589" stroke="#157589"></path>
    <path d="M163 268L111 269L127 321Z" fill="#00818f" stroke="#00818f"></path>
    <path d="M333 249L279 310L312 320Z" fill="#20ae8b" stroke="#20ae8b"></path>
    <path d="M238 265L219 219L166 266Z" fill="#34495e" stroke="#34495e"></path>
    <path d="M420 289L394 286L375 308Z" fill="#008d93" stroke="#008d93"></path>
    <path d="M375 308L333 249L312 320Z" fill="#34495e" stroke="#34495e"></path>
    <path d="M121 231L163 268L166 266Z" fill="#226a80" stroke="#226a80"></path>
    <path d="M121 231L111 269L163 268Z" fill="#41b883" stroke="#41b883"></path>
    <path d="M450 379L420 289L375 308Z" fill="#008d93" stroke="#008d93"></path>
    <path d="M394 286L333 249L375 308Z" fill="#41b883" stroke="#41b883"></path>
    <path d="M0 311L0 314L66 323Z" fill="#34495e" stroke="#34495e"></path>
    <path d="M66 323L0 314L33 393Z" fill="#20ae8b" stroke="#20ae8b"></path>
    <path d="M59 275L0 311L66 323Z" fill="#00a391" stroke="#00a391"></path>
    <path d="M273 1129L382 1125L371 1072Z" fill="#00818f" stroke="#00818f"></path>
    <path d="M188 1150L259 1112L180 1099Z" fill="#2b5f76" stroke="#2b5f76"></path>
    <path d="M273 1129L383 1175L382 1125Z" fill="#41b883" stroke="#41b883"></path>
    <path d="M111 269L59 275L66 323Z" fill="#34495e" stroke="#34495e"></path>
    <path d="M142 1118L188 1150L180 1099Z" fill="#226a80" stroke="#226a80"></path>
    <path d="M137 1169L188 1150L142 1118Z" fill="#009893" stroke="#009893"></path>
    <path d="M328 226L333 249L424 207Z" fill="#226a80" stroke="#226a80"></path>
    <path d="M249 260L219 219L238 265Z" fill="#34495e" stroke="#34495e"></path>
    <path d="M0 1125L75 1128L69 1076Z" fill="#226a80" stroke="#226a80"></path>
    <path d="M328 226L313 239L333 249Z" fill="#20ae8b" stroke="#20ae8b"></path>
    <path d="M333 249L313 239L279 310Z" fill="#20ae8b" stroke="#20ae8b"></path>
    <path d="M111 269L85 210L59 275Z" fill="#00818f" stroke="#00818f"></path>
    <path d="M75 1128L84 1134L125 1092Z" fill="#31546b" stroke="#31546b"></path>
    <path d="M313 239L289 229L249 260Z" fill="#2b5f76" stroke="#2b5f76"></path>
    <path d="M289 229L278 226L249 260Z" fill="#31546b" stroke="#31546b"></path>
    <path d="M450 379L450 271L420 289Z" fill="#20ae8b" stroke="#20ae8b"></path>
    <path d="M420 289L450 250L394 286Z" fill="#009893" stroke="#009893"></path>
    <path d="M313 239L318 215L289 229Z" fill="#31546b" stroke="#31546b"></path>
    <path d="M289 229L318 215L278 226Z" fill="#226a80" stroke="#226a80"></path>
    <path d="M278 226L219 219L249 260Z" fill="#41b883" stroke="#41b883"></path>
    <path d="M45 1197L122 1160L84 1134Z" fill="#226a80" stroke="#226a80"></path>
    <path d="M84 1134L122 1160L142 1118Z" fill="#009893" stroke="#009893"></path>
    <path d="M222 1186L247 1186L247 1151Z" fill="#34495e" stroke="#34495e"></path>
    <path d="M174 175L121 231L166 266Z" fill="#2b5f76" stroke="#2b5f76"></path>
    <path d="M59 275L0 277L0 311Z" fill="#2b5f76" stroke="#2b5f76"></path>
    <path d="M424 207L333 249L394 286Z" fill="#009893" stroke="#009893"></path>
    <path d="M278 226L252 175L219 219Z" fill="#008d93" stroke="#008d93"></path>
    <path d="M19 237L0 277L59 275Z" fill="#009893" stroke="#009893"></path>
    <path d="M122 1160L137 1169L142 1118Z" fill="#226a80" stroke="#226a80"></path>
    <path d="M424 207L318 215L328 226Z" fill="#41b883" stroke="#41b883"></path>
    <path d="M328 226L318 215L313 239Z" fill="#31546b" stroke="#31546b"></path>
    <path d="M0 1051L0 1125L69 1076Z" fill="#226a80" stroke="#226a80"></path>
    <path d="M75 1128L45 1197L84 1134Z" fill="#20ae8b" stroke="#20ae8b"></path>
    <path d="M122 1160L133 1235L137 1169Z" fill="#20ae8b" stroke="#20ae8b"></path>
    <path d="M222 1186L247 1151L188 1150Z" fill="#2b5f76" stroke="#2b5f76"></path>
    <path d="M247 1151L247 1186L273 1129Z" fill="#2b5f76" stroke="#2b5f76"></path>
    <path d="M204 1215L222 1186L188 1150Z" fill="#2b5f76" stroke="#2b5f76"></path>
    <path d="M450 271L450 250L420 289Z" fill="#008d93" stroke="#008d93"></path>
    <path d="M355 1206L383 1175L273 1129Z" fill="#31546b" stroke="#31546b"></path>
    <path d="M382 1125L450 1157L450 1067Z" fill="#20ae8b" stroke="#20ae8b"></path>
    <path d="M85 210L111 269L121 231Z" fill="#31546b" stroke="#31546b"></path>
    <path d="M85 210L19 237L59 275Z" fill="#31546b" stroke="#31546b"></path>
    <path d="M111 137L85 210L121 231Z" fill="#41b883" stroke="#41b883"></path>
    <path d="M174 175L166 266L219 219Z" fill="#31546b" stroke="#31546b"></path>
    <path d="M412 1173L450 1157L382 1125Z" fill="#157589" stroke="#157589"></path>
    <path d="M396 1231L412 1173L383 1175Z" fill="#226a80" stroke="#226a80"></path>
    <path d="M383 1175L412 1173L382 1125Z" fill="#20ae8b" stroke="#20ae8b"></path>
    <path d="M222 1186L226 1218L247 1186Z" fill="#226a80" stroke="#226a80"></path>
    <path d="M303 1221L355 1206L273 1129Z" fill="#20ae8b" stroke="#20ae8b"></path>
    <path d="M164 1227L204 1215L188 1150Z" fill="#31546b" stroke="#31546b"></path>
    <path d="M164 1227L188 1150L137 1169Z" fill="#34495e" stroke="#34495e"></path>
    <path d="M450 250L424 207L394 286Z" fill="#00a391" stroke="#00a391"></path>
    <path d="M232 126L252 175L302 116Z" fill="#008d93" stroke="#008d93"></path>
    <path d="M318 215L252 175L278 226Z" fill="#008d93" stroke="#008d93"></path>
    <path d="M204 1215L226 1218L222 1186Z" fill="#20ae8b" stroke="#20ae8b"></path>
    <path d="M450 222L424 207L450 250Z" fill="#00a391" stroke="#00a391"></path>
    <path d="M252 175L174 175L219 219Z" fill="#2b5f76" stroke="#2b5f76"></path>
    <path d="M303 1221L273 1129L247 1186Z" fill="#31546b" stroke="#31546b"></path>
    <path d="M412 1173L450 1230L450 1157Z" fill="#2b5f76" stroke="#2b5f76"></path>
    <path d="M226 1218L303 1221L247 1186Z" fill="#31546b" stroke="#31546b"></path>
    <path d="M0 1125L0 1173L75 1128Z" fill="#2b5f76" stroke="#2b5f76"></path>
    <path d="M0 1173L45 1197L75 1128Z" fill="#00818f" stroke="#00818f"></path>
    <path d="M0 1175L45 1197L0 1173Z" fill="#34495e" stroke="#34495e"></path>
    <path d="M204 1215L185 1273L226 1218Z" fill="#2b5f76" stroke="#2b5f76"></path>
    <path d="M133 1235L164 1227L137 1169Z" fill="#20ae8b" stroke="#20ae8b"></path>
    <path d="M226 1218L301 1270L303 1221Z" fill="#20ae8b" stroke="#20ae8b"></path>
    <path d="M0 195L16 203L18 182Z" fill="#157589" stroke="#157589"></path>
    <path d="M85 210L16 203L19 237Z" fill="#157589" stroke="#157589"></path>
    <path d="M19 237L0 195L0 277Z" fill="#2b5f76" stroke="#2b5f76"></path>
    <path d="M45 1197L133 1235L122 1160Z" fill="#20ae8b" stroke="#20ae8b"></path>
    <path d="M164 1227L185 1273L204 1215Z" fill="#34495e" stroke="#34495e"></path>
    <path d="M18 182L16 203L85 210Z" fill="#00a391" stroke="#00a391"></path>
    <path d="M16 203L0 195L19 237Z" fill="#00818f" stroke="#00818f"></path>
    <path d="M450 222L450 185L424 207Z" fill="#157589" stroke="#157589"></path>
    <path d="M359 110L302 116L318 215Z" fill="#157589" stroke="#157589"></path>
    <path d="M77 142L18 182L85 210Z" fill="#226a80" stroke="#226a80"></path>
    <path d="M376 1258L355 1206L328 1274Z" fill="#2b5f76" stroke="#2b5f76"></path>
    <path d="M376 1258L396 1231L355 1206Z" fill="#00a391" stroke="#00a391"></path>
    <path d="M355 1206L396 1231L383 1175Z" fill="#34495e" stroke="#34495e"></path>
    <path d="M252 175L212 131L174 175Z" fill="#2b5f76" stroke="#2b5f76"></path>
    <path d="M174 175L111 137L121 231Z" fill="#008d93" stroke="#008d93"></path>
    <path d="M232 126L212 131L252 175Z" fill="#00818f" stroke="#00818f"></path>
    <path d="M302 116L252 175L318 215Z" fill="#41b883" stroke="#41b883"></path>
    <path d="M85 1281L154 1261L133 1235Z" fill="#226a80" stroke="#226a80"></path>
    <path d="M133 1235L154 1261L164 1227Z" fill="#00818f" stroke="#00818f"></path>
    <path d="M85 1281L133 1235L45 1197Z" fill="#008d93" stroke="#008d93"></path>
    <path d="M184 85L111 137L174 175Z" fill="#009893" stroke="#009893"></path>
    <path d="M184 85L174 175L212 131Z" fill="#41b883" stroke="#41b883"></path>
    <path d="M111 137L77 142L85 210Z" fill="#31546b" stroke="#31546b"></path>
    <path d="M432 1266L450 1230L396 1231Z" fill="#41b883" stroke="#41b883"></path>
    <path d="M396 1231L450 1230L412 1173Z" fill="#20ae8b" stroke="#20ae8b"></path>
    <path d="M250 1294L301 1270L226 1218Z" fill="#31546b" stroke="#31546b"></path>
    <path d="M154 1261L185 1273L164 1227Z" fill="#34495e" stroke="#34495e"></path>
    <path d="M328 1274L355 1206L303 1221Z" fill="#2b5f76" stroke="#2b5f76"></path>
    <path d="M77 142L0 164L18 182Z" fill="#31546b" stroke="#31546b"></path>
    <path d="M18 182L0 164L0 195Z" fill="#34495e" stroke="#34495e"></path>
    <path d="M388 117L318 215L424 207Z" fill="#34495e" stroke="#34495e"></path>
    <path d="M233 82L184 85L212 131Z" fill="#00818f" stroke="#00818f"></path>
    <path d="M301 1270L328 1274L303 1221Z" fill="#00a391" stroke="#00a391"></path>
    <path d="M357 1311L328 1274L335 1350Z" fill="#41b883" stroke="#41b883"></path>
    <path d="M357 1311L401 1262L376 1258Z" fill="#157589" stroke="#157589"></path>
    <path d="M376 1258L401 1262L396 1231Z" fill="#41b883" stroke="#41b883"></path>
    <path d="M0 1175L28 1252L45 1197Z" fill="#008d93" stroke="#008d93"></path>
    <path d="M154 1261L130 1347L185 1273Z" fill="#00a391" stroke="#00a391"></path>
    <path d="M236 1309L250 1294L185 1273Z" fill="#34495e" stroke="#34495e"></path>
    <path d="M185 1273L250 1294L226 1218Z" fill="#34495e" stroke="#34495e"></path>
    <path d="M450 1271L432 1266L450 1277Z" fill="#2b5f76" stroke="#2b5f76"></path>
    <path d="M450 185L388 117L424 207Z" fill="#00818f" stroke="#00818f"></path>
    <path d="M388 117L359 110L318 215Z" fill="#157589" stroke="#157589"></path>
    <path d="M432 1266L378 1324L450 1277Z" fill="#226a80" stroke="#226a80"></path>
    <path d="M401 1262L432 1266L396 1231Z" fill="#00a391" stroke="#00a391"></path>
    <path d="M28 1252L85 1281L45 1197Z" fill="#34495e" stroke="#34495e"></path>
    <path d="M233 82L232 126L291 78Z" fill="#157589" stroke="#157589"></path>
    <path d="M233 82L212 131L232 126Z" fill="#31546b" stroke="#31546b"></path>
    <path d="M111 137L110 72L77 142Z" fill="#00818f" stroke="#00818f"></path>
    <path d="M77 142L0 124L0 164Z" fill="#41b883" stroke="#41b883"></path>
    <path d="M227 1334L236 1309L185 1273Z" fill="#20ae8b" stroke="#20ae8b"></path>
    <path d="M269 1330L328 1274L301 1270Z" fill="#157589" stroke="#157589"></path>
    <path d="M291 78L232 126L302 116Z" fill="#20ae8b" stroke="#20ae8b"></path>
    <path d="M375 77L313 87L359 110Z" fill="#009893" stroke="#009893"></path>
    <path d="M359 110L313 87L302 116Z" fill="#31546b" stroke="#31546b"></path>
    <path d="M432 1266L401 1262L378 1324Z" fill="#34495e" stroke="#34495e"></path>
    <path d="M432 1266L450 1271L450 1230Z" fill="#009893" stroke="#009893"></path>
    <path d="M450 185L450 120L388 117Z" fill="#41b883" stroke="#41b883"></path>
    <path d="M388 117L382 83L359 110Z" fill="#009893" stroke="#009893"></path>
    <path d="M37 85L0 124L77 142Z" fill="#009893" stroke="#009893"></path>
    <path d="M357 1311L376 1258L328 1274Z" fill="#00818f" stroke="#00818f"></path>
    <path d="M214 36L147 69L184 85Z" fill="#157589" stroke="#157589"></path>
    <path d="M313 87L291 78L302 116Z" fill="#157589" stroke="#157589"></path>
    <path d="M283 19L291 78L313 87Z" fill="#00818f" stroke="#00818f"></path>
    <path d="M269 1330L301 1270L250 1294Z" fill="#34495e" stroke="#34495e"></path>
    <path d="M424 73L382 83L388 117Z" fill="#2b5f76" stroke="#2b5f76"></path>
    <path d="M184 85L147 69L111 137Z" fill="#2b5f76" stroke="#2b5f76"></path>
    <path d="M111 53L147 69L149 0Z" fill="#34495e" stroke="#34495e"></path>
    <path d="M184 85L233 82L214 36Z" fill="#00a391" stroke="#00a391"></path>
    <path d="M28 1252L70 1311L85 1281Z" fill="#157589" stroke="#157589"></path>
    <path d="M227 1334L269 1330L236 1309Z" fill="#00818f" stroke="#00818f"></path>
    <path d="M0 1175L0 1285L28 1252Z" fill="#2b5f76" stroke="#2b5f76"></path>
    <path d="M424 73L375 77L382 83Z" fill="#41b883" stroke="#41b883"></path>
    <path d="M382 83L375 77L359 110Z" fill="#34495e" stroke="#34495e"></path>
    <path d="M130 1347L154 1261L85 1281Z" fill="#31546b" stroke="#31546b"></path>
    <path d="M236 1309L269 1330L250 1294Z" fill="#34495e" stroke="#34495e"></path>
    <path d="M147 69L110 72L111 137Z" fill="#157589" stroke="#157589"></path>
    <path d="M0 1285L70 1311L28 1252Z" fill="#00818f" stroke="#00818f"></path>
    <path d="M130 1347L227 1334L185 1273Z" fill="#00a391" stroke="#00a391"></path>
    <path d="M51 1330L73 1314L70 1311Z" fill="#2b5f76" stroke="#2b5f76"></path>
    <path d="M70 1311L73 1314L85 1281Z" fill="#008d93" stroke="#008d93"></path>
    <path d="M110 72L37 85L77 142Z" fill="#008d93" stroke="#008d93"></path>
    <path d="M377 1342L378 1324L357 1311Z" fill="#31546b" stroke="#31546b"></path>
    <path d="M357 1311L378 1324L401 1262Z" fill="#008d93" stroke="#008d93"></path>
    <path d="M377 1342L357 1311L335 1350Z" fill="#00a391" stroke="#00a391"></path>
    <path d="M450 120L424 73L388 117Z" fill="#20ae8b" stroke="#20ae8b"></path>
    <path d="M214 36L233 82L283 19Z" fill="#41b883" stroke="#41b883"></path>
    <path d="M147 69L111 53L110 72Z" fill="#41b883" stroke="#41b883"></path>
    <path d="M110 72L111 53L37 85Z" fill="#009893" stroke="#009893"></path>
    <path d="M233 82L291 78L283 19Z" fill="#00a391" stroke="#00a391"></path>
    <path d="M51 1330L130 1347L73 1314Z" fill="#31546b" stroke="#31546b"></path>
    <path d="M73 1314L130 1347L85 1281Z" fill="#00818f" stroke="#00818f"></path>
    <path d="M335 1350L328 1274L269 1330Z" fill="#20ae8b" stroke="#20ae8b"></path>
    <path d="M283 19L316 0L310 0Z" fill="#20ae8b" stroke="#20ae8b"></path>
    <path d="M0 1285L51 1330L70 1311Z" fill="#41b883" stroke="#41b883"></path>
    <path d="M335 1350L289 1424L359 1399Z" fill="#31546b" stroke="#31546b"></path>
    <path d="M378 1324L450 1369L450 1277Z" fill="#009893" stroke="#009893"></path>
    <path d="M251 1412L269 1330L227 1334Z" fill="#226a80" stroke="#226a80"></path>
    <path d="M62 11L37 85L111 53Z" fill="#008d93" stroke="#008d93"></path>
    <path d="M62 11L0 60L37 85Z" fill="#226a80" stroke="#226a80"></path>
    <path d="M37 85L0 60L0 124Z" fill="#20ae8b" stroke="#20ae8b"></path>
    <path d="M283 19L313 87L316 0Z" fill="#00818f" stroke="#00818f"></path>
    <path d="M214 36L205 14L147 69Z" fill="#226a80" stroke="#226a80"></path>
    <path d="M219 0L205 14L214 36Z" fill="#41b883" stroke="#41b883"></path>
    <path d="M137 1399L160 1378L130 1347Z" fill="#34495e" stroke="#34495e"></path>
    <path d="M0 1285L0 1338L51 1330Z" fill="#31546b" stroke="#31546b"></path>
    <path d="M137 1399L130 1347L81 1413Z" fill="#31546b" stroke="#31546b"></path>
    <path d="M130 1347L160 1378L227 1334Z" fill="#008d93" stroke="#008d93"></path>
    <path d="M359 1399L379 1369L335 1350Z" fill="#00a391" stroke="#00a391"></path>
    <path d="M335 1350L379 1369L377 1342Z" fill="#34495e" stroke="#34495e"></path>
    <path d="M377 1342L450 1369L378 1324Z" fill="#41b883" stroke="#41b883"></path>
    <path d="M283 19L219 0L214 36Z" fill="#2b5f76" stroke="#2b5f76"></path>
    <path d="M205 14L149 0L147 69Z" fill="#00818f" stroke="#00818f"></path>
    <path d="M219 0L199 0L205 14Z" fill="#157589" stroke="#157589"></path>
    <path d="M283 19L310 0L219 0Z" fill="#226a80" stroke="#226a80"></path>
    <path d="M316 0L313 87L375 77Z" fill="#008d93" stroke="#008d93"></path>
    <path d="M370 0L316 0L375 77Z" fill="#008d93" stroke="#008d93"></path>
    <path d="M137 1399L174 1394L160 1378Z" fill="#20ae8b" stroke="#20ae8b"></path>
    <path d="M160 1378L174 1394L227 1334Z" fill="#20ae8b" stroke="#20ae8b"></path>
    <path d="M199 0L149 0L205 14Z" fill="#226a80" stroke="#226a80"></path>
    <path d="M450 120L450 24L424 73Z" fill="#41b883" stroke="#41b883"></path>
    <path d="M424 73L370 0L375 77Z" fill="#157589" stroke="#157589"></path>
    <path d="M85 0L62 11L111 53Z" fill="#41b883" stroke="#41b883"></path>
    <path d="M450 1381L450 1369L379 1369Z" fill="#157589" stroke="#157589"></path>
    <path d="M379 1369L450 1369L377 1342Z" fill="#008d93" stroke="#008d93"></path>
    <path d="M450 24L370 0L424 73Z" fill="#009893" stroke="#009893"></path>
    <path d="M81 1413L130 1347L51 1330Z" fill="#226a80" stroke="#226a80"></path>
    <path d="M289 1424L335 1350L269 1330Z" fill="#34495e" stroke="#34495e"></path>
    <path d="M149 0L85 0L111 53Z" fill="#009893" stroke="#009893"></path>
    <path d="M85 0L77 0L62 11Z" fill="#00818f" stroke="#00818f"></path>
    <path d="M251 1412L227 1334L204 1412Z" fill="#34495e" stroke="#34495e"></path>
    <path d="M204 1412L227 1334L174 1394Z" fill="#2b5f76" stroke="#2b5f76"></path>
    <path d="M139 1412L204 1412L174 1394Z" fill="#226a80" stroke="#226a80"></path>
    <path d="M450 1419L450 1381L379 1369Z" fill="#20ae8b" stroke="#20ae8b"></path>
    <path d="M0 1338L0 1375L51 1330Z" fill="#31546b" stroke="#31546b"></path>
    <path d="M137 1399L139 1412L174 1394Z" fill="#2b5f76" stroke="#2b5f76"></path>
    <path d="M81 1413L139 1412L137 1399Z" fill="#2b5f76" stroke="#2b5f76"></path>
    <path d="M450 24L450 0L370 0Z" fill="#009893" stroke="#009893"></path>
    <path d="M215 1433L251 1412L204 1412Z" fill="#00a391" stroke="#00a391"></path>
    <path d="M215 1433L262 1425L251 1412Z" fill="#009893" stroke="#009893"></path>
    <path d="M251 1412L289 1424L269 1330Z" fill="#20ae8b" stroke="#20ae8b"></path>
    <path d="M359 1399L450 1419L379 1369Z" fill="#41b883" stroke="#41b883"></path>
    <path d="M262 1425L289 1424L251 1412Z" fill="#226a80" stroke="#226a80"></path>
    <path d="M23 1411L81 1413L51 1330Z" fill="#34495e" stroke="#34495e"></path>
    <path d="M139 1412L215 1433L204 1412Z" fill="#157589" stroke="#157589"></path>
    <path d="M77 0L0 0L62 11Z" fill="#2b5f76" stroke="#2b5f76"></path>
    <path d="M62 11L0 0L0 60Z" fill="#00a391" stroke="#00a391"></path>
    <path d="M310 1487L290 1428L285 1500Z" fill="#009893" stroke="#009893"></path>
    <path d="M262 1425L290 1428L289 1424Z" fill="#008d93" stroke="#008d93"></path>
    <path d="M289 1424L290 1428L359 1399Z" fill="#31546b" stroke="#31546b"></path>
    <path d="M262 1500L215 1433L177 1500Z" fill="#41b883" stroke="#41b883"></path>
    <path d="M0 1375L23 1411L51 1330Z" fill="#008d93" stroke="#008d93"></path>
    <path d="M0 1395L23 1411L0 1375Z" fill="#009893" stroke="#009893"></path>
    <path d="M81 1413L76 1434L139 1412Z" fill="#226a80" stroke="#226a80"></path>
    <path d="M428 1453L359 1399L392 1500Z" fill="#2b5f76" stroke="#2b5f76"></path>
    <path d="M428 1453L450 1419L359 1399Z" fill="#00a391" stroke="#00a391"></path>
    <path d="M23 1411L76 1434L81 1413Z" fill="#226a80" stroke="#226a80"></path>
    <path d="M310 1487L359 1399L290 1428Z" fill="#157589" stroke="#157589"></path>
    <path d="M290 1428L262 1425L262 1500Z" fill="#20ae8b" stroke="#20ae8b"></path>
    <path d="M262 1500L262 1425L215 1433Z" fill="#226a80" stroke="#226a80"></path>
    <path d="M177 1500L215 1433L171 1500Z" fill="#2b5f76" stroke="#2b5f76"></path>
    <path d="M262 1500L285 1500L290 1428Z" fill="#009893" stroke="#009893"></path>
    <path d="M310 1487L354 1500L359 1399Z" fill="#00a391" stroke="#00a391"></path>
    <path d="M171 1500L215 1433L139 1412Z" fill="#2b5f76" stroke="#2b5f76"></path>
    <path d="M171 1500L139 1412L76 1434Z" fill="#20ae8b" stroke="#20ae8b"></path>
    <path d="M62 1500L171 1500L76 1434Z" fill="#31546b" stroke="#31546b"></path>
    <path d="M285 1500L354 1500L310 1487Z" fill="#157589" stroke="#157589"></path>
    <path d="M354 1500L392 1500L359 1399Z" fill="#226a80" stroke="#226a80"></path>
    <path d="M0 1485L76 1434L23 1411Z" fill="#00a391" stroke="#00a391"></path>
    <path d="M0 1485L62 1500L76 1434Z" fill="#00818f" stroke="#00818f"></path>
    <path d="M0 1395L0 1485L23 1411Z" fill="#34495e" stroke="#34495e"></path>
    <path d="M392 1500L450 1500L428 1453Z" fill="#00818f" stroke="#00818f"></path>
    <path d="M428 1453L450 1500L450 1419Z" fill="#34495e" stroke="#34495e"></path>
    <path d="M0 1485L12 1500L62 1500Z" fill="#00a391" stroke="#00a391"></path>
    <path d="M0 1485L0 1500L12 1500Z" fill="#2b5f76" stroke="#2b5f76"></path>
  </g>
</svg>