<?xml version="1.0" standalone="no"?>
<!DOCTYPE svg PUBLIC "-//W3C//DTD SVG 20010904//EN"
 "http://www.w3.org/TR/2001/REC-SVG-20010904/DTD/svg10.dtd">
<svg version="1.0" xmlns="http://www.w3.org/2000/svg"
 width="1024.000000pt" height="1024.000000pt" viewBox="0 0 1024.000000 1024.000000"
 preserveAspectRatio="xMidYMid meet">
<metadata>
Created by potrace 1.14, written by Peter Selinger 2001-2017
</metadata>
<g transform="translate(0.000000,1024.000000) scale(0.100000,-0.100000)"
fill="#000000" stroke="none">
<path d="M1730 8202 l0 -1648 1268 1 c697 0 1272 -1 1279 -3 11 -3 -12 -35
-74 -99 -13 -13 -23 -26 -23 -28 0 -2 -18 -23 -41 -47 -23 -24 -55 -60 -72
-82 -18 -21 -41 -48 -52 -60 -11 -12 -49 -55 -85 -96 -36 -41 -67 -77 -70 -80
-3 -3 -34 -39 -69 -80 -36 -41 -70 -80 -75 -85 -12 -11 -121 -135 -152 -173
-10 -13 -35 -41 -54 -63 -55 -60 -141 -159 -213 -243 -23 -27 -54 -62 -69 -78
-16 -16 -28 -30 -28 -32 0 -3 -15 -19 -32 -38 -18 -19 -53 -58 -78 -87 -25
-29 -54 -63 -65 -75 -11 -12 -47 -53 -80 -90 -33 -38 -69 -78 -80 -90 -11 -13
-31 -36 -45 -53 -14 -17 -52 -61 -86 -99 -34 -38 -83 -94 -109 -124 -91 -105
-160 -183 -175 -199 -9 -9 -40 -45 -70 -80 -30 -36 -65 -76 -78 -90 -46 -51
-60 -67 -133 -151 -40 -47 -78 -90 -84 -96 -5 -6 -35 -39 -65 -74 -30 -34 -63
-72 -74 -84 -10 -12 -37 -43 -60 -70 -22 -27 -52 -60 -66 -75 -25 -26 -131
-147 -180 -205 -14 -17 -34 -40 -45 -51 -11 -12 -42 -48 -69 -80 l-50 -58 0
-1589 -1 -1589 25 2 c14 0 28 0 33 0 18 -4 139 -3 143 1 2 3 22 2 43 -2 22 -4
46 -3 55 2 9 5 16 5 16 1 0 -4 21 -7 47 -6 61 2 144 3 163 2 22 -1 139 0 173
2 6 0 37 0 67 -1 30 0 63 0 73 0 9 0 28 0 42 0 14 0 31 1 38 1 6 0 63 0 125
-1 62 -2 115 0 118 2 2 3 22 2 43 -2 22 -4 46 -3 55 2 9 5 16 5 16 1 0 -4 21
-7 47 -6 61 2 144 3 163 2 22 -1 139 0 173 2 6 0 37 0 67 -1 30 0 63 0 73 0 9
0 28 0 42 0 14 0 31 1 38 1 6 0 63 0 125 -1 62 -2 115 0 118 2 2 3 22 2 43 -2
22 -4 46 -3 55 2 9 5 16 5 16 1 0 -4 21 -7 47 -6 61 2 144 3 163 2 22 -1 139
0 173 2 6 0 37 0 67 -1 30 0 63 0 73 0 9 0 28 0 42 0 14 0 31 1 38 1 6 0 63 0
125 -1 62 -2 115 0 118 2 2 3 22 2 43 -2 22 -4 46 -3 55 2 9 5 16 5 16 1 0 -4
21 -7 47 -6 61 2 144 3 163 2 22 -1 139 0 173 2 6 0 37 0 67 -1 30 0 63 0 73
0 9 0 28 0 42 0 14 0 31 1 38 1 6 0 63 0 125 -1 62 -2 115 0 118 2 2 3 22 2
43 -2 22 -4 46 -3 55 2 9 5 16 5 16 1 0 -4 21 -7 47 -6 61 2 144 3 163 2 22
-1 139 0 173 2 6 0 37 0 67 -1 30 0 63 0 73 0 9 0 28 0 42 0 14 0 31 1 38 1 6
0 63 0 125 -1 62 -2 115 0 118 2 2 3 22 2 43 -2 22 -4 46 -3 55 2 9 5 16 5 16
1 0 -4 21 -7 47 -6 61 2 144 3 163 2 22 -1 139 0 173 2 6 0 37 0 67 -1 30 0
63 0 73 0 9 0 28 0 42 0 14 0 31 1 38 1 6 0 63 0 125 -1 62 -2 115 0 118 2 2
3 22 2 43 -2 22 -4 46 -3 55 2 9 5 16 5 16 1 0 -4 21 -7 47 -6 61 2 144 3 163
2 22 -1 139 0 173 2 6 0 37 0 67 -1 30 0 63 0 73 0 9 0 28 0 42 0 14 0 31 1
38 1 6 0 62 0 122 -1 61 -1 115 0 120 0 13 3 63 -1 87 -5 10 -2 18 0 18 4 0 5
18 5 40 1 22 -4 42 -4 45 0 2 4 17 5 33 2 22 -3 30 1 33 15 4 15 3 3235 0
3268 -1 7 -514 10 -1526 10 -839 0 -1525 1 -1525 2 0 2 127 148 199 229 20 22
61 69 91 103 30 35 66 76 80 91 14 15 50 56 80 91 30 35 62 70 70 79 8 9 40
45 70 80 30 35 62 71 70 80 8 9 35 40 60 69 25 29 56 65 70 80 14 15 54 60 90
101 67 76 72 81 155 176 28 32 58 66 68 76 9 10 17 20 17 22 0 3 12 17 28 33
24 25 123 136 174 195 11 13 43 50 71 82 29 33 60 69 70 80 10 12 44 50 75 85
31 35 65 73 75 85 35 40 102 118 122 139 11 12 53 60 94 107 41 47 78 87 83
88 4 2 8 7 8 12 0 5 12 21 28 37 15 15 56 62 92 103 36 41 76 87 90 102 14 15
45 50 70 79 25 29 57 66 71 81 15 16 44 49 65 74 57 67 63 74 131 150 34 38
71 80 83 94 45 52 136 155 150 170 8 9 42 47 75 85 33 39 72 84 87 100 16 17
28 39 29 50 0 25 0 3032 0 3063 l-1 22 -3380 0 -3380 0 0 -1648z"/>
</g>
</svg>
